<?xml version="1.0" encoding="UTF-8" standalone="yes"?><!DOCTYPE svg PUBLIC "-//W3C//DTD SVG 1.1//EN" "http://www.w3.org/Graphics/SVG/1.1/DTD/svg11.dtd" [<!ENTITY quot "&#34;"><!ENTITY amp "&#38;"><!ENTITY apos "&#39;"><!ENTITY lt "&#60;"><!ENTITY gt "&#62;"><!ENTITY nbsp "&#160;">]><svg id="DotUML" width="646pt" height="476pt" xmlns="http://www.w3.org/2000/svg" version="1.1" xmlns:xlink="http://www.w3.org/1999/xlink" xmlns:svgjs="http://svgjs.com/svgjs"><defs id="SvgjsDefs3678"></defs><svg width="646pt" height="476pt" viewBox="0.00 0.00 645.81 476.00" xmlns="http://www.w3.org/2000/svg" xmlns:xlink="http://www.w3.org/1999/xlink"><desc>digraph%20%22packages%22%20%7B%0Acharset=%22utf-8%22%0Arankdir=BT%0A%220%22%20%5Blabel=%22Calculation%22,%20shape=%22box%22%5D;%0A%221%22%20%5Blabel=%22CustomMiniWidgets%22,%20shape=%22box%22%5D;%0A%222%22%20%5Blabel=%22Exporter%22,%20shape=%22box%22%5D;%0A%223%22%20%5Blabel=%22LayerData%22,%20shape=%22box%22%5D;%0A%224%22%20%5Blabel=%22LayerDivider%22,%20shape=%22box%22%5D;%0A%225%22%20%5Blabel=%22LayerWidget%22,%20shape=%22box%22%5D;%0A%226%22%20%5Blabel=%22NewTab%22,%20shape=%22box%22%5D;%0A%227%22%20%5Blabel=%22Parser%22,%20shape=%22box%22%5D;%0A%228%22%20%5Blabel=%22Printing%22,%20shape=%22box%22%5D;%0A%229%22%20%5Blabel=%22RWidget%22,%20shape=%22box%22%5D;%0A%2210%22%20%5Blabel=%22Tab%22,%20shape=%22box%22%5D;%0A%2211%22%20%5Blabel=%22TabData%22,%20shape=%22box%22%5D;%0A%2212%22%20%5Blabel=%22TempWidget%22,%20shape=%22box%22%5D;%0A%2213%22%20%5Blabel=%22VisualizeWidget%22,%20shape=%22box%22%5D;%0A%2214%22%20%5Blabel=%22__init__%22,%20shape=%22box%22%5D;%0A%2215%22%20%5Blabel=%22master%22,%20shape=%22box%22%5D;%0A%223%22%20-%3E%20%220%22%20%5Barrowhead=%22open%22,%20arrowtail=%22none%22%5D;%0A%224%22%20-%3E%20%221%22%20%5Barrowhead=%22open%22,%20arrowtail=%22none%22%5D;%0A%225%22%20-%3E%20%221%22%20%5Barrowhead=%22open%22,%20arrowtail=%22none%22%5D;%0A%225%22%20-%3E%20%223%22%20%5Barrowhead=%22open%22,%20arrowtail=%22none%22%5D;%0A%227%22%20-%3E%20%223%22%20%5Barrowhead=%22open%22,%20arrowtail=%22none%22%5D;%0A%227%22%20-%3E%20%2211%22%20%5Barrowhead=%22open%22,%20arrowtail=%22none%22%5D;%0A%228%22%20-%3E%20%2210%22%20%5Barrowhead=%22open%22,%20arrowtail=%22none%22%5D;%0A%229%22%20-%3E%20%221%22%20%5Barrowhead=%22open%22,%20arrowtail=%22none%22%5D;%0A%2210%22%20-%3E%20%224%22%20%5Barrowhead=%22open%22,%20arrowtail=%22none%22%5D;%0A%2210%22%20-%3E%20%225%22%20%5Barrowhead=%22open%22,%20arrowtail=%22none%22%5D;%0A%2210%22%20-%3E%20%229%22%20%5Barrowhead=%22open%22,%20arrowtail=%22none%22%5D;%0A%2210%22%20-%3E%20%2211%22%20%5Barrowhead=%22open%22,%20arrowtail=%22none%22%5D;%0A%2210%22%20-%3E%20%2212%22%20%5Barrowhead=%22open%22,%20arrowtail=%22none%22%5D;%0A%2210%22%20-%3E%20%2213%22%20%5Barrowhead=%22open%22,%20arrowtail=%22none%22%5D;%0A%2211%22%20-%3E%20%220%22%20%5Barrowhead=%22open%22,%20arrowtail=%22none%22%5D;%0A%2211%22%20-%3E%20%223%22%20%5Barrowhead=%22open%22,%20arrowtail=%22none%22%5D;%0A%2212%22%20-%3E%20%221%22%20%5Barrowhead=%22open%22,%20arrowtail=%22none%22%5D;%0A%2214%22%20-%3E%20%2215%22%20%5Barrowhead=%22open%22,%20arrowtail=%22none%22%5D;%0A%2215%22%20-%3E%20%222%22%20%5Barrowhead=%22open%22,%20arrowtail=%22none%22%5D;%0A%2215%22%20-%3E%20%226%22%20%5Barrowhead=%22open%22,%20arrowtail=%22none%22%5D;%0A%2215%22%20-%3E%20%227%22%20%5Barrowhead=%22open%22,%20arrowtail=%22none%22%5D;%0A%2215%22%20-%3E%20%228%22%20%5Barrowhead=%22open%22,%20arrowtail=%22none%22%5D;%0A%2215%22%20-%3E%20%2210%22%20%5Barrowhead=%22open%22,%20arrowtail=%22none%22%5D;%0A%7D%0A</desc><g id="graph0" class="graph" transform="scale(1 1) rotate(0) translate(4 472)"><polygon fill="#ffffff" stroke="transparent" points="-4,4 -4,-472 641.8079,-472 641.8079,4 -4,4"></polygon><g id="node1" class=""><polygon fill="none" stroke="#000000" points="110.5785,-468 30.4903,-468 30.4903,-432 110.5785,-432 110.5785,-468"></polygon><text text-anchor="middle" x="70.5344" y="-445.8" font-family="Times,serif" font-size="14.00" fill="#000000" svgjs:data="{&quot;leading&quot;:&quot;1.3&quot;}">Calculation</text></g><g id="node2" class=""><polygon fill="none" stroke="#000000" points="391.4783,-396 257.5905,-396 257.5905,-360 391.4783,-360 391.4783,-396"></polygon><text text-anchor="middle" x="324.5344" y="-373.8" font-family="Times,serif" font-size="14.00" fill="#000000" svgjs:data="{&quot;leading&quot;:&quot;1.3&quot;}">CustomMiniWidgets</text></g><g id="node3" class=""><polygon fill="none" stroke="#000000" points="384.0134,-180 319.0554,-180 319.0554,-144 384.0134,-144 384.0134,-180"></polygon><text text-anchor="middle" x="351.5344" y="-157.8" font-family="Times,serif" font-size="14.00" fill="#000000" svgjs:data="{&quot;leading&quot;:&quot;1.3&quot;}">Exporter</text></g><g id="node4" class=""><polygon fill="none" stroke="#000000" points="75.1032,-396 -.0344,-396 -.0344,-360 75.1032,-360 75.1032,-396"></polygon><text text-anchor="middle" x="37.5344" y="-373.8" font-family="Times,serif" font-size="14.00" fill="#000000" svgjs:data="{&quot;leading&quot;:&quot;1.3&quot;}">LayerData</text></g><g id="edge1" class=""><path fill="none" stroke="#000000" d="M45.8617,-396.1686C49.5074,-404.1229 53.8653,-413.631 57.8971,-422.4277"></path><polygon fill="#000000" stroke="#000000" points="62.095,-431.5867 53.8376,-424.371 60.0117,-427.0414 57.9284,-422.4961 57.9284,-422.4961 57.9284,-422.4961 60.0117,-427.0414 62.0192,-420.6211 62.095,-431.5867 62.095,-431.5867"></polygon></g><g id="node5" class=""><polygon fill="none" stroke="#000000" points="425.4407,-324 333.6281,-324 333.6281,-288 425.4407,-288 425.4407,-324"></polygon><text text-anchor="middle" x="379.5344" y="-301.8" font-family="Times,serif" font-size="14.00" fill="#000000" svgjs:data="{&quot;leading&quot;:&quot;1.3&quot;}">LayerDivider</text></g><g id="edge2" class=""><path fill="none" stroke="#000000" d="M365.6556,-324.1686C359.3208,-332.4614 351.696,-342.443 344.7418,-351.5467"></path><polygon fill="#000000" stroke="#000000" points="338.6001,-359.5867 341.0945,-348.9083 341.6353,-355.6134 344.6705,-351.64 344.6705,-351.64 344.6705,-351.64 341.6353,-355.6134 348.2466,-354.3717 338.6001,-359.5867 338.6001,-359.5867"></polygon></g><g id="node6" class=""><polygon fill="none" stroke="#000000" points="207.3873,-324 117.6815,-324 117.6815,-288 207.3873,-288 207.3873,-324"></polygon><text text-anchor="middle" x="162.5344" y="-301.8" font-family="Times,serif" font-size="14.00" fill="#000000" svgjs:data="{&quot;leading&quot;:&quot;1.3&quot;}">LayerWidget</text></g><g id="edge3" class=""><path fill="none" stroke="#000000" d="M203.4138,-324.1686C225.0804,-333.7982 251.8707,-345.705 274.7422,-355.8701"></path><polygon fill="#000000" stroke="#000000" points="283.9489,-359.962 272.9831,-360.0127 279.3799,-357.9313 274.8108,-355.9006 274.8108,-355.9006 274.8108,-355.9006 279.3799,-357.9313 276.6384,-351.7884 283.9489,-359.962 283.9489,-359.962"></polygon></g><g id="edge4" class=""><path fill="none" stroke="#000000" d="M130.9916,-324.1686C114.8553,-333.4632 95.0358,-344.8792 77.8072,-354.8029"></path><polygon fill="#000000" stroke="#000000" points="69.0671,-359.8372 75.4863,-350.9465 73.3998,-357.3415 77.7324,-354.8459 77.7324,-354.8459 77.7324,-354.8459 73.3998,-357.3415 79.9785,-358.7453 69.0671,-359.8372 69.0671,-359.8372"></polygon></g><g id="node7" class=""><polygon fill="none" stroke="#000000" points="466.7297,-180 402.3391,-180 402.3391,-144 466.7297,-144 466.7297,-180"></polygon><text text-anchor="middle" x="434.5344" y="-157.8" font-family="Times,serif" font-size="14.00" fill="#000000" svgjs:data="{&quot;leading&quot;:&quot;1.3&quot;}">NewTab</text></g><g id="node8" class=""><polygon fill="none" stroke="#000000" points="94.5344,-252 40.5344,-252 40.5344,-216 94.5344,-216 94.5344,-252"></polygon><text text-anchor="middle" x="67.5344" y="-229.8" font-family="Times,serif" font-size="14.00" fill="#000000" svgjs:data="{&quot;leading&quot;:&quot;1.3&quot;}">Parser</text></g><g id="edge5" class=""><path fill="none" stroke="#000000" d="M48.9304,-252.1933C40.3311,-261.9109 31.0407,-274.6128 26.5344,-288 19.7441,-308.1723 23.1956,-332.1433 27.9641,-350.2724"></path><polygon fill="#000000" stroke="#000000" points="30.774,-359.9399 23.6617,-351.5932 29.3784,-355.1385 27.9829,-350.3372 27.9829,-350.3372 27.9829,-350.3372 29.3784,-355.1385 32.3041,-349.0813 30.774,-359.9399 30.774,-359.9399"></polygon></g><g id="node12" class=""><polygon fill="none" stroke="#000000" points="99.7283,-324 35.3405,-324 35.3405,-288 99.7283,-288 99.7283,-324"></polygon><text text-anchor="middle" x="67.5344" y="-301.8" font-family="Times,serif" font-size="14.00" fill="#000000" svgjs:data="{&quot;leading&quot;:&quot;1.3&quot;}">TabData</text></g><g id="edge6" class=""><path fill="none" stroke="#000000" d="M67.5344,-252.1686C67.5344,-259.869 67.5344,-269.0257 67.5344,-277.5834"></path><polygon fill="#000000" stroke="#000000" points="67.5344,-287.5867 63.0345,-277.5867 67.5344,-282.5867 67.5345,-277.5867 67.5345,-277.5867 67.5345,-277.5867 67.5344,-282.5867 72.0345,-277.5868 67.5344,-287.5867 67.5344,-287.5867"></polygon></g><g id="node9" class=""><polygon fill="none" stroke="#000000" points="301.1495,-180 239.9193,-180 239.9193,-144 301.1495,-144 301.1495,-180"></polygon><text text-anchor="middle" x="270.5344" y="-157.8" font-family="Times,serif" font-size="14.00" fill="#000000" svgjs:data="{&quot;leading&quot;:&quot;1.3&quot;}">Printing</text></g><g id="node11" class=""><polygon fill="none" stroke="#000000" points="297.5344,-252 243.5344,-252 243.5344,-216 297.5344,-216 297.5344,-252"></polygon><text text-anchor="middle" x="270.5344" y="-229.8" font-family="Times,serif" font-size="14.00" fill="#000000" svgjs:data="{&quot;leading&quot;:&quot;1.3&quot;}">Tab</text></g><g id="edge7" class=""><path fill="none" stroke="#000000" d="M270.5344,-180.1686C270.5344,-187.869 270.5344,-197.0257 270.5344,-205.5834"></path><polygon fill="#000000" stroke="#000000" points="270.5344,-215.5867 266.0345,-205.5867 270.5344,-210.5867 270.5345,-205.5867 270.5345,-205.5867 270.5345,-205.5867 270.5344,-210.5867 275.0345,-205.5868 270.5344,-215.5867 270.5344,-215.5867"></polygon></g><g id="node10" class=""><polygon fill="none" stroke="#000000" points="637.5829,-324 571.4859,-324 571.4859,-288 637.5829,-288 637.5829,-324"></polygon><text text-anchor="middle" x="604.5344" y="-301.8" font-family="Times,serif" font-size="14.00" fill="#000000" svgjs:data="{&quot;leading&quot;:&quot;1.3&quot;}">RWidget</text></g><g id="edge8" class=""><path fill="none" stroke="#000000" d="M571.2734,-320.9023C568.343,-322.0176 565.4016,-323.0689 562.5344,-324 509.5815,-341.1963 448.2834,-354.9665 401.1586,-364.2971"></path><polygon fill="#000000" stroke="#000000" points="391.326,-366.2204 400.2761,-359.8843 396.233,-365.2605 401.14,-364.3006 401.14,-364.3006 401.14,-364.3006 396.233,-365.2605 402.0039,-368.7169 391.326,-366.2204 391.326,-366.2204"></polygon></g><g id="edge9" class=""><path fill="none" stroke="#000000" d="M297.7585,-251.9829C311.6744,-261.175 328.7868,-272.4787 343.7548,-282.3658"></path><polygon fill="#000000" stroke="#000000" points="352.2796,-287.9968 341.4553,-286.2399 348.1076,-285.241 343.9356,-282.4851 343.9356,-282.4851 343.9356,-282.4851 348.1076,-285.241 346.4158,-278.7303 352.2796,-287.9968 352.2796,-287.9968"></polygon></g><g id="edge10" class=""><path fill="none" stroke="#000000" d="M243.2814,-252.1686C229.5955,-261.2926 212.8429,-272.461 198.1517,-282.2551"></path><polygon fill="#000000" stroke="#000000" points="189.7786,-287.8372 195.603,-278.5459 193.9389,-285.0636 198.0992,-282.2901 198.0992,-282.2901 198.0992,-282.2901 193.9389,-285.0636 200.5953,-286.0344 189.7786,-287.8372 189.7786,-287.8372"></polygon></g><g id="edge11" class=""><path fill="none" stroke="#000000" d="M297.5803,-236.9649C348.0676,-242.9297 460.0146,-258.1845 561.5244,-288.037"></path><polygon fill="#000000" stroke="#000000" points="571.3129,-290.9718 560.4418,-292.4103 566.5235,-289.5358 561.7341,-288.0999 561.7341,-288.0999 561.7341,-288.0999 566.5235,-289.5358 563.0265,-283.7894 571.3129,-290.9718 571.3129,-290.9718"></polygon></g><g id="edge12" class=""><path fill="none" stroke="#000000" d="M243.3204,-242.2305C212.748,-251.6584 161.5142,-268.0013 109.0972,-287.939"></path><polygon fill="#000000" stroke="#000000" points="99.6471,-291.5684 107.3689,-283.7823 104.3147,-289.7758 108.9823,-287.9831 108.9823,-287.9831 108.9823,-287.9831 104.3147,-289.7758 110.5957,-292.184 99.6471,-291.5684 99.6471,-291.5684"></polygon></g><g id="node13" class=""><polygon fill="none" stroke="#000000" points="315.4027,-324 225.6661,-324 225.6661,-288 315.4027,-288 315.4027,-324"></polygon><text text-anchor="middle" x="270.5344" y="-301.8" font-family="Times,serif" font-size="14.00" fill="#000000" svgjs:data="{&quot;leading&quot;:&quot;1.3&quot;}">TempWidget</text></g><g id="edge13" class=""><path fill="none" stroke="#000000" d="M270.5344,-252.1686C270.5344,-259.869 270.5344,-269.0257 270.5344,-277.5834"></path><polygon fill="#000000" stroke="#000000" points="270.5344,-287.5867 266.0345,-277.5867 270.5344,-282.5867 270.5345,-277.5867 270.5345,-277.5867 270.5345,-277.5867 270.5344,-282.5867 275.0345,-277.5868 270.5344,-287.5867 270.5344,-287.5867"></polygon></g><g id="node14" class=""><polygon fill="none" stroke="#000000" points="553.6116,-324 443.4572,-324 443.4572,-288 553.6116,-288 553.6116,-324"></polygon><text text-anchor="middle" x="498.5344" y="-301.8" font-family="Times,serif" font-size="14.00" fill="#000000" svgjs:data="{&quot;leading&quot;:&quot;1.3&quot;}">VisualizeWidget</text></g><g id="edge14" class=""><path fill="none" stroke="#000000" d="M297.5843,-242.5421C330.8825,-253.0573 388.5477,-271.2674 433.5889,-285.4909"></path><polygon fill="#000000" stroke="#000000" points="443.2851,-288.5529 432.3942,-289.8326 438.5172,-287.0472 433.7493,-285.5415 433.7493,-285.5415 433.7493,-285.5415 438.5172,-287.0472 435.1044,-281.2504 443.2851,-288.5529 443.2851,-288.5529"></polygon></g><g id="edge15" class=""><path fill="none" stroke="#000000" d="M74.7783,-324.1634C78.5056,-334.487 82.6532,-347.7597 84.5344,-360 86.9649,-375.8143 86.5584,-380.1285 84.5344,-396 83.449,-404.5113 81.4382,-413.5989 79.2724,-421.8445"></path><polygon fill="#000000" stroke="#000000" points="76.5042,-431.7319 74.867,-420.889 77.8523,-426.9171 79.2003,-422.1022 79.2003,-422.1022 79.2003,-422.1022 77.8523,-426.9171 83.5337,-423.3154 76.5042,-431.7319 76.5042,-431.7319"></polygon></g><g id="edge16" class=""><path fill="none" stroke="#000000" d="M59.9641,-324.1686C56.6851,-332.0383 52.7724,-341.4288 49.1399,-350.1467"></path><polygon fill="#000000" stroke="#000000" points="45.2066,-359.5867 44.899,-348.6252 47.1297,-354.9713 49.0528,-350.356 49.0528,-350.356 49.0528,-350.356 47.1297,-354.9713 53.2067,-352.0868 45.2066,-359.5867 45.2066,-359.5867"></polygon></g><g id="edge17" class=""><path fill="none" stroke="#000000" d="M284.1609,-324.1686C290.3804,-332.4614 297.8666,-342.443 304.6944,-351.5467"></path><polygon fill="#000000" stroke="#000000" points="310.7244,-359.5867 301.1244,-354.2867 307.7244,-355.5867 304.7244,-351.5867 304.7244,-351.5867 304.7244,-351.5867 307.7244,-355.5867 308.3244,-348.8867 310.7244,-359.5867 310.7244,-359.5867"></polygon></g><g id="node15" class=""><polygon fill="none" stroke="#000000" points="301.7071,-36 239.3617,-36 239.3617,0 301.7071,0 301.7071,-36"></polygon><text text-anchor="middle" x="270.5344" y="-13.8" font-family="Times,serif" font-size="14.00" fill="#000000" svgjs:data="{&quot;leading&quot;:&quot;1.3&quot;}">__init__</text></g><g id="node16" class=""><polygon fill="none" stroke="#000000" points="297.5344,-108 243.5344,-108 243.5344,-72 297.5344,-72 297.5344,-108"></polygon><text text-anchor="middle" x="270.5344" y="-85.8" font-family="Times,serif" font-size="14.00" fill="#000000" svgjs:data="{&quot;leading&quot;:&quot;1.3&quot;}">master</text></g><g id="edge18" class=""><path fill="none" stroke="#000000" d="M270.5344,-36.1686C270.5344,-43.869 270.5344,-53.0257 270.5344,-61.5834"></path><polygon fill="#000000" stroke="#000000" points="270.5344,-71.5867 266.0345,-61.5867 270.5344,-66.5867 270.5345,-61.5867 270.5345,-61.5867 270.5345,-61.5867 270.5344,-66.5867 275.0345,-61.5868 270.5344,-71.5867 270.5344,-71.5867"></polygon></g><g id="edge19" class=""><path fill="none" stroke="#000000" d="M290.9741,-108.1686C300.8549,-116.9515 312.8668,-127.6288 323.5794,-137.1511"></path><polygon fill="#000000" stroke="#000000" points="331.1012,-143.8372 320.6374,-140.5569 327.3642,-140.5153 323.6271,-137.1935 323.6271,-137.1935 323.6271,-137.1935 327.3642,-140.5153 326.6168,-133.8301 331.1012,-143.8372 331.1012,-143.8372"></polygon></g><g id="edge20" class=""><path fill="none" stroke="#000000" d="M297.6157,-101.8893C323.5571,-113.2783 363.0702,-130.6255 392.9925,-143.7621"></path><polygon fill="#000000" stroke="#000000" points="402.3412,-147.8664 391.3757,-147.9668 397.7629,-145.8564 393.1847,-143.8464 393.1847,-143.8464 393.1847,-143.8464 397.7629,-145.8564 394.9937,-139.726 402.3412,-147.8664 402.3412,-147.8664"></polygon></g><g id="edge21" class=""><path fill="none" stroke="#000000" d="M244.8243,-108.2377C208.3694,-134.0974 141.6098,-181.4539 101.2313,-210.0968"></path><polygon fill="#000000" stroke="#000000" points="93.0357,-215.9104 98.5884,-206.4543 97.1139,-213.0175 101.192,-210.1246 101.192,-210.1246 101.192,-210.1246 97.1139,-213.0175 103.7957,-213.7949 93.0357,-215.9104 93.0357,-215.9104"></polygon></g><g id="edge22" class=""><path fill="none" stroke="#000000" d="M270.5344,-108.1686C270.5344,-115.869 270.5344,-125.0257 270.5344,-133.5834"></path><polygon fill="#000000" stroke="#000000" points="270.5344,-143.5867 266.0345,-133.5867 270.5344,-138.5867 270.5345,-133.5867 270.5345,-133.5867 270.5345,-133.5867 270.5344,-138.5867 275.0345,-133.5868 270.5344,-143.5867 270.5344,-143.5867"></polygon></g><g id="edge23" class=""><path fill="none" stroke="#000000" d="M252.3768,-108.2714C243.9854,-118.0089 234.9221,-130.7051 230.5344,-144 225.52,-159.1939 225.52,-164.8061 230.5344,-180 233.8252,-189.9712 239.746,-199.6056 246.0408,-207.9076"></path><polygon fill="#000000" stroke="#000000" points="252.3768,-215.7286 242.5854,-210.7911 249.2294,-211.8435 246.082,-207.9584 246.082,-207.9584 246.082,-207.9584 249.2294,-211.8435 249.5786,-205.1257 252.3768,-215.7286 252.3768,-215.7286"></polygon></g></g></svg></svg>